/* XPM */
static char *_644082618371[] = {
/* columns rows colors chars-per-pixel */
"30 30 74 1 ",
"  c #054E05",
". c #054F05",
"X c #035503",
"o c #045304",
"O c #045704",
"+ c #035A03",
"@ c #035D03",
"# c #025F02",
"$ c #036203",
"% c #026402",
"& c #026502",
"* c #026602",
"= c #026802",
"- c #026A02",
"; c #026B02",
": c #016E01",
"> c #076F07",
", c #017201",
"< c #017301",
"1 c #017401",
"2 c #017501",
"3 c #017601",
"4 c #017701",
"5 c #027402",
"6 c #027602",
"7 c #067206",
"8 c #007800",
"9 c #007900",
"0 c #027902",
"q c #037E03",
"w c #037F03",
"e c #038503",
"r c #038603",
"t c #038E03",
"y c #038F03",
"u c #039503",
"i c #039F03",
"p c #03A303",
"a c #03A403",
"s c #03A503",
"d c #03A703",
"f c #03B103",
"g c #02BD02",
"h c #02BE02",
"j c #03C903",
"k c #02CA02",
"l c #03C804",
"z c #02D502",
"x c #05D205",
"c c #05D405",
"v c #05D605",
"b c #02DF02",
"n c #04DC04",
"m c #04DD04",
"M c #05DC05",
"N c #01E801",
"B c #01EF01",
"V c #02EE02",
"C c #01F001",
"Z c #01F101",
"A c #02F202",
"S c #02F302",
"D c #01F501",
"F c #01F601",
"G c #01F701",
"H c #02F402",
"J c #01F801",
"K c #01F901",
"L c #00FA00",
"P c #00FC00",
"I c #00FD00",
"U c #00FE00",
"Y c green",
"T c None",
/* pixels */
"TTTTTTTTTTTTTTTTTTTTTTTTTTTTTT",
"TTTTTTTTTTTTTTTTTTTTTTTTTTTTTT",
"TTTTTTTTTTTTTT  TTTTTTTTTTTTTT",
"TTTTTTTTTTTTTT33TTTTTTTTTTTTTT",
"TTTTTTTTTTTTT,,3,TTTTTTTTTTTTT",
"TTTTTTTTTTTT:3uu3:TTTTTTTTTTTT",
"TTTTTTTTTTT-3tBZy3-TTTTTTTTTTT",
"TTTTTTTTTT*8rNYYNr8-TTTTTTTTTT",
"TTTTTTTTT$3wbYYYYbw8$TTTTTTTTT",
"TTTTTTTT@88zYYYYLYz88$TTTTTTTT",
"TTTTTTTO83jYYLLYYYYl38+TTTTTTT",
"TTTTTTo83gYYYYYYYYYYh53OTTTTTT",
"TTTTTT3,fYLYYYYYLYYLYf,3TTTTTT",
"TTTTT,,sLYYYYLLYYYYYYLs3,TTTTT",
"TTTTT*7BYYYYYYYYYYYYYYB>*TTTTT",
"TTTTTTTHYLLYYLYYLYYLYYHTTTTTTT",
"TTTTTTTHYYLYYLYYLYYLYYZTTTTTTT",
"TTTTTTTHYYYYYYYYYYYYYYZTTTTTTT",
"TTTTTTTHYLLYYYYLYYYYYYHTTTTTTT",
"TTTTTTTHYYYYYLYYLYYLYYATTTTTTT",
"TTTTTTTLLYYYLLLLHYYYYYATTTTTTT",
"TTTTTTTHYYYLlpspplLYYYATTTTTTT",
"TTTTTTTHYYYHTTTTTTHYYYATTTTTTT",
"TTTTTTTHYYYHTTTTTTHYYYHTTTTTTT",
"TTTTTTTHYYYHTTTTTTHYYYZTTTTTTT",
"TTTTTTTHYYYHTTTTTTHYYYZTTTTTTT",
"TTTTTTTHYYYHTTTTTTLYYYHTTTTTTT",
"TTTTTTTcmmmcTTTTTTcmmmcTTTTTTT",
"TTTTTTTTTTTTTTTTTTTTTTTTTTTTTT",
"TTTTTTTTTTTTTTTTTTTTTTTTTTTTTT"
};
