/* XPM */
static char *_643288602578[] = {
/* columns rows colors chars-per-pixel */
"30 30 186 2 ",
"   c #7F382C",
".  c #5E454A",
"X  c #5A4F53",
"o  c #784D43",
"O  c #75474A",
"+  c #7F504F",
"@  c #6C4854",
"#  c #6F4559",
"$  c #6D4E5C",
"%  c #7E4753",
"&  c #7C4D56",
"*  c #6A525E",
"=  c #765257",
"-  c #725F55",
";  c #71545B",
":  c #795D5A",
">  c #4D577D",
",  c #535777",
"<  c #555D77",
"1  c #595D77",
"2  c #535979",
"3  c #6A5C68",
"4  c #63556A",
"5  c #7A5B61",
"6  c #9B2B0D",
"7  c #AE2B02",
"8  c #A5280E",
"9  c #AF2C0D",
"0  c #A82802",
"q  c #B52706",
"w  c #BB2704",
"e  c #B32B03",
"r  c #BB2D04",
"t  c #B32A0A",
"y  c #AF3103",
"u  c #AD320A",
"i  c #B43405",
"p  c #BA3303",
"a  c #BF3904",
"s  c #BB330C",
"d  c #BC3C0D",
"f  c #B4380D",
"g  c #AD2117",
"h  c #AB2E13",
"j  c #B22E19",
"k  c #B22E14",
"l  c #A93513",
"z  c #AC3C16",
"x  c #AF3B19",
"c  c #BC3515",
"v  c #BD3A13",
"b  c #BE3F18",
"n  c #B53716",
"m  c #843E29",
"M  c #9E3A28",
"N  c #A73327",
"B  c #A53F26",
"V  c #B33D22",
"C  c #B53D29",
"Z  c #BC3B27",
"A  c #C42401",
"S  c #C92605",
"D  c #C32807",
"F  c #CB2D03",
"G  c #C42E0F",
"H  c #CE2D0D",
"J  c #D22E02",
"K  c #DC2C04",
"L  c #D8280B",
"P  c #C63203",
"I  c #CC3306",
"U  c #C33B04",
"Y  c #CD3904",
"T  c #C6350C",
"R  c #CB340B",
"E  c #C33B08",
"W  c #CC390C",
"Q  c #D33405",
"!  c #DD3201",
"~  c #D13802",
"^  c #D53109",
"/  c #DA3C09",
"(  c #D82F12",
")  c #C63416",
"_  c #C03911",
"`  c #C13B1C",
"'  c #C8381B",
"]  c #CB3411",
"[  c #D43313",
"{  c #DE3E17",
"}  c #D03C14",
"|  c #EE3C0C",
" . c #E5330D",
".. c #F2360F",
"X. c #F43B0A",
"o. c #FA3808",
"O. c #B84016",
"+. c #B5411F",
"@. c #B24515",
"#. c #9B462A",
"$. c #9C4828",
"%. c #8D4A34",
"&. c #9C4336",
"*. c #944C32",
"=. c #984339",
"-. c #954B3C",
";. c #AF4323",
":. c #AD4824",
">. c #A2432A",
",. c #A84328",
"<. c #AB4D2F",
"1. c #B64328",
"2. c #B44A27",
"3. c #B75126",
"4. c #B8542F",
"5. c #A84A3A",
"6. c #B64D37",
"7. c #A35339",
"8. c #B95336",
"9. c #B05935",
"0. c #B65639",
"q. c #D5420D",
"w. c #DF450F",
"e. c #C64A19",
"r. c #C7481D",
"t. c #D34D1D",
"y. c #EC4407",
"u. c #EA4509",
"i. c #E14B08",
"p. c #F0440F",
"a. c #FC4D0D",
"s. c #E8550C",
"d. c #FA5209",
"f. c #F35506",
"g. c #E64317",
"h. c #EC4818",
"j. c #F34E14",
"k. c #FF4C13",
"l. c #F64B19",
"z. c #FA4C19",
"x. c #E4511F",
"c. c #E8511A",
"v. c #F65113",
"b. c #C14327",
"n. c #C54D28",
"m. c #C44925",
"M. c #CE512E",
"N. c #DC5D23",
"B. c #D75F32",
"V. c #D25638",
"C. c #D15E39",
"Z. c #EF4427",
"A. c #E44D23",
"S. c #F64B29",
"D. c #E65826",
"F. c #DB682E",
"G. c #CF6631",
"H. c #DC603F",
"J. c #934B40",
"K. c #944948",
"L. c #954347",
"P. c #935340",
"I. c #854D53",
"U. c #9A5450",
"Y. c #A95D47",
"T. c #AF5E53",
"R. c #9D6046",
"E. c #AC604B",
"W. c #A46F55",
"Q. c #A36652",
"!. c #BB6B53",
"~. c #945E61",
"^. c #826A6D",
"/. c #8B6071",
"(. c #AA7063",
"). c #E45A42",
"_. c #DE6A46",
"`. c #C66152",
"'. c #C86654",
"]. c #D66751",
"[. c #C77E5C",
"{. c #D67957",
"}. c #465886",
"|. c #435A89",
" X c #535E82",
".X c None",
/* pixels */
".X.X.X.X.X.X.X.X.X.X.X.X.X.X.X.X.X.X.X.X.X.X.X.X.X.X.X.X.X.X",
".X.X.X.X.X.X.X.X.X.X.X.X.X.X.X.X.X.X.X.X.X.X.X.X.X.X.X.X.X.X",
".X.X.X.X.X.X.X.X.X.X.X.X.X.X.X.X.X.X.X.X.X.X.X.X.X.X.X.X.X.X",
".X.X.X.X.X.X.X.X.X.X.X.X.X.X.X.X.X.X.X.X.X.X.X.X(.'..X.X.X.X",
".X.X.X.X.X.X.X.X.X.X.X.X.X.X.X.X.X.X.X.X7.U.: ; =.g N .X.X.X",
".X.X.X.X.X.X.X.X.X.X.X.X.X.X.Xr.] ( W W d l C C ` S F 2..X.X",
".X.X.X.X.X.X.X.X.X.X.X.X.X.X2 l H L ^ R r r P Q Q ~ W ' .X.X",
".X.X.X.X.X.X.X.X.X.X.X.X.XP.= X m 6..X- %.E Q [ ^ ~ ^ G <..X",
".X.X.X.X.X.X.X.X.X.X.X.X.X$.,.o m .X.X.XE.I K ( ] p x 8..X.X",
".X.X.X.X.X.X.X.X.X.X.X.X.X* I._ w k 1.V c ^ P s +.9..X.X.X.X",
".X.X.X.X.X.X.X.X.X.X.X.X.X}.|.V G w 7 q w n >..X.X.X.X.X.X.X",
".X.X.X.X.X.X.X.X.X.X.X.X.X3 . b g.h.w./ E C..X.X.X.X.X.X.X.X",
".X.X.X.X.X.X.X.X.X.X.X.X.XR.@.f.a.a.k.a.v.c.D.D.N.N.N.D.M..X",
".X.X.X.X.X.X.X.X.X.X.X.X.XY.t.s.j.z.l.z.k.k.d.d.a.j.h.Z.)..X",
".X.X.X.X.X.X.X.X.X.X.X.X.X-.` X.o.X.u.u.X.p.i.u.S.)._..X.X.X",
".X.X.X.X.X.X.X.X.X.X.X.X/.=.c  ...| / e.{..X.X.X.X.X.X.X.X.X",
".X.X.X.X.X.X.X.X.X.X.X.X X X= I I Q / T b.!..X.X.X.X.X.X.X.X",
".X.X.X.X.X.X.X.X.X.X.X7.$ > $ ,.f U Y K L V..X.X.X.X.X.X.X.X",
".X.X.X.X.X.X.X.X.X.X: O % & = 2 #.f x c T 8..X.X.X.X.X.X.X.X",
"W.Q..X.X.X.X.X.XT.L.@ < & &.+ < $.>.# ~..X.X.X.X.X.X.X.X.X.X",
".X!.n.q.} K.-.v ) k h V O.W ) Z v K.4 ^..X.X.X.X.X.X.X.X.X.X",
".X.X.XG.A.M.t.y.| { D A J J ^ ! ^ c M %..X.X.X.X.X.X.X.X.X.X",
".X.X.X.X.X.XF.G._.].5.6 7 t w r e A t .X.X.X.X.X.X.X.X.X.X.X",
".X.X.X.X.X.X.X.X.X.X.X:.0 0 A e y y :..X.X.X.X.X.X.X.X.X.X.X",
".X.X.X.X.X.X.X.X.X.X.X0.s q f I P r b m.3.[..X.X.X.X.X.X.X.X",
".X.X.X.X.X.X.X.X.X.X`.) ^ D v Y ! ! Q r @..X.X.X.X.X.X.X.X.X",
".X.X.X.X.X.X.X.X.X.X8.^ ! P P Q I s x 6..X.X.X.X.X.X.X.X.X.X",
".X.X.X.X.X.X.X.X.X.X*.n a y u 9 8 <..X.X.X.X.X.X.X.X.X.X.X.X",
".X.X.X.X.X.X.X.X.X.X.X.X.X.X.X.X.X.X.X.X.X.X.X.X.X.X.X.X.X.X",
".X.X.X.X.X.X.X.X.X.X.X.X.X.X.X.X.X.X.X.X.X.X.X.X.X.X.X.X.X.X"
};
