/* XPM */
static char *_643392371615[] = {
/* columns rows colors chars-per-pixel */
"30 30 69 1 ",
"  c #401E07",
". c #421F08",
"X c #431F09",
"o c #442009",
"O c #47230B",
"+ c #46220C",
"@ c #48230A",
"# c #4B250B",
"$ c #4D250B",
"% c #48230C",
"& c #48240C",
"* c #4A260E",
"= c #4F270D",
"- c #4E270F",
"; c #4F280D",
": c #4F290F",
"> c #50270D",
", c #50280E",
"< c #552A0E",
"1 c #542B0F",
"2 c #572B0F",
"3 c #572C0F",
"4 c #582C0F",
"5 c #512910",
"6 c #542B10",
"7 c #562B10",
"8 c #572C11",
"9 c #562F16",
"0 c #582C10",
"q c #5B2F11",
"w c #5A2F13",
"e c #5B2F13",
"r c #5C2F12",
"t c #563016",
"y c #563017",
"u c #5B3013",
"i c #5C3012",
"p c #583017",
"a c #5D3014",
"s c #5A331A",
"d c #5C3419",
"f c #59341C",
"g c #58341D",
"h c #603213",
"j c #603314",
"k c #613415",
"l c #643414",
"z c #643514",
"x c #663615",
"c c #673716",
"v c #673717",
"b c #683717",
"n c #693817",
"m c #673718",
"M c #683718",
"N c #693918",
"B c #6B3918",
"V c #6C3A1A",
"C c #6E3C1A",
"Z c #6E3C1B",
"A c #703D1A",
"S c #733E1C",
"D c #743E1C",
"F c #743F1D",
"G c #573926",
"H c #563A27",
"J c #583E2E",
"K c #75401D",
"L c #5A402F",
/* pixels */
"*,5*=5=:>5==**##====:::5:5%:5*",
",Gf=qqwrqqq8q222732qqqqqqq>9L2",
":fp=7q22788722==:2222u2288>8y,",
",q85wirs887:$:=:834q8pq888:8u3",
"5i8qVSSVncca=qijvVSVKSVVVcy3u,",
",q8wVSSFVVca7qianCCVSSKVmc83r,",
",q7qVKSVvvMa2rjhvVCVKSCvbmq7r,",
"5q8qVKKZnnMr=rjrvCVVSSSmnc824,",
"-q7wVSDCmncq=qaucVVVDSCnnc88q=",
":q7qVSSVVnVi7riacVVnDCnvnjy8q:",
"=q8qnSCVvvvi2riibbVmSCBvnz884,",
"=7,qcCCVvvii=4rijcVmnSnvcz8,q,",
"=q=qmVVMccby:4rqlbbbVVnvzk823:",
"*2:7cVVbich8>4qqicbbVvvjzi8=3$",
"=2=7mbMcjlkq:238hcMjnnvhvk,,2#",
"*7,7jcbbhjk7$338rjmjcnkhii8,2:",
"$22:anvkajjw=:77qakaMcjrai8=4=",
"=225akvaqaa7=52>rrjijkaraq522:",
"=2,5iihiqqa5*=224rrujjiquq5,2,",
":q2,ikiiqqq5#===4ririiq8uq:33,",
"-q75qqrq3qq:+===28p7rrq,88:8i,",
":qw57qw7,q8:o====2r7rq2288:3i,",
"-r7-5qq7=85=o#:#:27-777577,44,",
"=q7=-777:85=o@,o==q,,755>::4i5",
"5qq==52=55,* o=#$:>=2=5=-=*8i,",
",r7**>=5==>%.o#o#$=*,>====*8i,",
"=qq++=%%+**o   #o##oo%%+*#+8p,",
"5s9=77qq777222>>>:77q2q227:8d5",
"=Hg=qqr0qqq7q22,22q2qquqqq>9J5",
"*5:*555>5=:===#*===:,=,5:=*=5*"
};
